# xmcd
# 
# Track frame offsets:
#     150
#     18442
#     31258
#     42053
#     59059
#     69644
#     86099
#     99833
#     110220
# 
# Disc length: 1628
# 
# Revision: 0
# Processed by: cddbd v1.5.2PL0 Copyright (c) Steve Scherf et al.
# Submitted via: fre:ac v1.0.17
# 
DISCID=75065a09
DTITLE=Evelyn and Hugh McLean - We're Together Again
DYEAR=0
DGENRE=Country
TTITLE0=One
TTITLE1=Will You Travel Down This Road with Me
TTITLE2=So Sad
TTITLE3=Wedding Bells
TTITLE4=It's an Old Love Thing
TTITLE5=You're the Best Friend that I Ever Had
TTITLE6=In a TownThis Size
TTITLE7=We Could
TTITLE8=You're My Best Friend
EXTD=
EXTT0=
EXTT1=
EXTT2=
EXTT3=
EXTT4=
EXTT5=
EXTT6=
EXTT7=
EXTT8=
PLAYORDER=
